<mxfile host="app.diagrams.net" agent="Mozilla/5.0 (Windows NT 10.0; Win64; x64) AppleWebKit/537.36 (KHTML, like Gecko) Chrome/126.0.0.0 Safari/537.36 OPR/112.0.0.0" version="24.7.7">
  <diagram name="Page-1" id="SzHzPwQ4UlkWMSZUTKHr">
    <mxGraphModel dx="1104" dy="598" grid="1" gridSize="10" guides="1" tooltips="1" connect="1" arrows="1" fold="1" page="1" pageScale="1" pageWidth="827" pageHeight="1169" math="0" shadow="0">
      <root>
        <mxCell id="0" />
        <mxCell id="1" parent="0" />
        <mxCell id="7-QTB2i3PnKzkWgtio7F-1" value="Prof" style="shape=umlActor;verticalLabelPosition=bottom;verticalAlign=top;html=1;" parent="1" vertex="1">
          <mxGeometry x="50" y="450" width="30" height="60" as="geometry" />
        </mxCell>
        <mxCell id="7-QTB2i3PnKzkWgtio7F-2" value="cataloge system" style="swimlane;whiteSpace=wrap;html=1;" parent="1" vertex="1">
          <mxGeometry x="150" y="50" width="1060" height="1040" as="geometry" />
        </mxCell>
        <mxCell id="7-QTB2i3PnKzkWgtio7F-3" value="login" style="ellipse;whiteSpace=wrap;html=1;fillColor=#dae8fc;strokeColor=#6c8ebf;" parent="7-QTB2i3PnKzkWgtio7F-2" vertex="1">
          <mxGeometry x="100" y="130" width="90" height="40" as="geometry" />
        </mxCell>
        <mxCell id="7-QTB2i3PnKzkWgtio7F-5" value="comunicate with wledi.service" style="ellipse;whiteSpace=wrap;html=1;fillColor=#dae8fc;strokeColor=#6c8ebf;" parent="7-QTB2i3PnKzkWgtio7F-2" vertex="1">
          <mxGeometry x="244" y="130" width="90" height="45" as="geometry" />
        </mxCell>
        <mxCell id="7-QTB2i3PnKzkWgtio7F-4" value="include" style="endArrow=open;endSize=12;dashed=1;html=1;rounded=0;" parent="7-QTB2i3PnKzkWgtio7F-2" source="7-QTB2i3PnKzkWgtio7F-3" target="7-QTB2i3PnKzkWgtio7F-5" edge="1">
          <mxGeometry width="160" relative="1" as="geometry">
            <mxPoint x="290" y="100" as="sourcePoint" />
            <mxPoint x="450" y="100" as="targetPoint" />
          </mxGeometry>
        </mxCell>
        <mxCell id="7-QTB2i3PnKzkWgtio7F-10" value="consulter list cour" style="ellipse;whiteSpace=wrap;html=1;" parent="7-QTB2i3PnKzkWgtio7F-2" vertex="1">
          <mxGeometry x="194" y="275" width="120" height="50" as="geometry" />
        </mxCell>
        <mxCell id="7-QTB2i3PnKzkWgtio7F-11" value="include" style="endArrow=open;endSize=12;dashed=1;html=1;rounded=0;" parent="7-QTB2i3PnKzkWgtio7F-2" source="7-QTB2i3PnKzkWgtio7F-10" target="7-QTB2i3PnKzkWgtio7F-3" edge="1">
          <mxGeometry width="160" relative="1" as="geometry">
            <mxPoint x="100" y="200" as="sourcePoint" />
            <mxPoint x="260" y="200" as="targetPoint" />
          </mxGeometry>
        </mxCell>
        <mxCell id="7-QTB2i3PnKzkWgtio7F-12" value="filtrer les cour" style="ellipse;whiteSpace=wrap;html=1;" parent="7-QTB2i3PnKzkWgtio7F-2" vertex="1">
          <mxGeometry x="194" y="400" width="115" height="60" as="geometry" />
        </mxCell>
        <mxCell id="7-QTB2i3PnKzkWgtio7F-14" value="extand" style="endArrow=open;endSize=12;dashed=1;html=1;rounded=0;" parent="7-QTB2i3PnKzkWgtio7F-2" source="7-QTB2i3PnKzkWgtio7F-12" target="7-QTB2i3PnKzkWgtio7F-10" edge="1">
          <mxGeometry width="160" relative="1" as="geometry">
            <mxPoint x="100" y="340" as="sourcePoint" />
            <mxPoint x="260" y="340" as="targetPoint" />
          </mxGeometry>
        </mxCell>
        <mxCell id="7-QTB2i3PnKzkWgtio7F-15" value="chercher par titre" style="ellipse;whiteSpace=wrap;html=1;" parent="7-QTB2i3PnKzkWgtio7F-2" vertex="1">
          <mxGeometry x="408.58000000000004" y="400" width="110" height="60" as="geometry" />
        </mxCell>
        <mxCell id="7-QTB2i3PnKzkWgtio7F-17" value="choisir categorie scolaire" style="ellipse;whiteSpace=wrap;html=1;" parent="7-QTB2i3PnKzkWgtio7F-2" vertex="1">
          <mxGeometry x="197.50000000000006" y="505" width="110" height="60" as="geometry" />
        </mxCell>
        <mxCell id="7-QTB2i3PnKzkWgtio7F-18" value="choisir niveau" style="ellipse;whiteSpace=wrap;html=1;" parent="7-QTB2i3PnKzkWgtio7F-2" vertex="1">
          <mxGeometry x="403.5800000000002" y="510" width="120" height="50" as="geometry" />
        </mxCell>
        <mxCell id="7-QTB2i3PnKzkWgtio7F-19" value="choisir matiere" style="ellipse;whiteSpace=wrap;html=1;" parent="7-QTB2i3PnKzkWgtio7F-2" vertex="1">
          <mxGeometry x="600" y="510" width="110" height="50" as="geometry" />
        </mxCell>
        <mxCell id="7-QTB2i3PnKzkWgtio7F-23" value="gerer le cour" style="ellipse;whiteSpace=wrap;html=1;" parent="7-QTB2i3PnKzkWgtio7F-2" vertex="1">
          <mxGeometry x="92.5" y="565" width="105" height="60" as="geometry" />
        </mxCell>
        <mxCell id="7-QTB2i3PnKzkWgtio7F-24" value="ajouter un cour" style="ellipse;whiteSpace=wrap;html=1;" parent="7-QTB2i3PnKzkWgtio7F-2" vertex="1">
          <mxGeometry x="280" y="575" width="100" height="50" as="geometry" />
        </mxCell>
        <mxCell id="7-QTB2i3PnKzkWgtio7F-25" value="gerer chapitre" style="ellipse;whiteSpace=wrap;html=1;" parent="7-QTB2i3PnKzkWgtio7F-2" vertex="1">
          <mxGeometry x="490" y="700" width="90" height="50" as="geometry" />
        </mxCell>
        <mxCell id="7-QTB2i3PnKzkWgtio7F-26" value="ajouter un event" style="ellipse;whiteSpace=wrap;html=1;" parent="7-QTB2i3PnKzkWgtio7F-2" vertex="1">
          <mxGeometry x="285" y="690" width="90" height="50" as="geometry" />
        </mxCell>
        <mxCell id="7-QTB2i3PnKzkWgtio7F-29" value="extand" style="endArrow=open;endSize=12;dashed=1;html=1;rounded=0;" parent="7-QTB2i3PnKzkWgtio7F-2" source="7-QTB2i3PnKzkWgtio7F-24" target="7-QTB2i3PnKzkWgtio7F-26" edge="1">
          <mxGeometry width="160" relative="1" as="geometry">
            <mxPoint x="350" y="625" as="sourcePoint" />
            <mxPoint x="438" y="673" as="targetPoint" />
          </mxGeometry>
        </mxCell>
        <mxCell id="7-QTB2i3PnKzkWgtio7F-28" value="extand" style="endArrow=open;endSize=12;dashed=1;html=1;rounded=0;" parent="7-QTB2i3PnKzkWgtio7F-2" source="7-QTB2i3PnKzkWgtio7F-68" target="7-QTB2i3PnKzkWgtio7F-25" edge="1">
          <mxGeometry width="160" relative="1" as="geometry">
            <mxPoint x="410" y="680" as="sourcePoint" />
            <mxPoint x="320" y="525" as="targetPoint" />
          </mxGeometry>
        </mxCell>
        <mxCell id="7-QTB2i3PnKzkWgtio7F-30" value="gerer document" style="ellipse;whiteSpace=wrap;html=1;" parent="7-QTB2i3PnKzkWgtio7F-2" vertex="1">
          <mxGeometry x="490" y="810" width="90" height="50" as="geometry" />
        </mxCell>
        <mxCell id="7-QTB2i3PnKzkWgtio7F-31" value="extand" style="endArrow=open;endSize=12;dashed=1;html=1;rounded=0;" parent="7-QTB2i3PnKzkWgtio7F-2" source="7-QTB2i3PnKzkWgtio7F-25" target="7-QTB2i3PnKzkWgtio7F-30" edge="1">
          <mxGeometry width="160" relative="1" as="geometry">
            <mxPoint x="430" y="830" as="sourcePoint" />
            <mxPoint x="389" y="736" as="targetPoint" />
          </mxGeometry>
        </mxCell>
        <mxCell id="7-QTB2i3PnKzkWgtio7F-35" value="ajouter un document" style="ellipse;whiteSpace=wrap;html=1;" parent="7-QTB2i3PnKzkWgtio7F-2" vertex="1">
          <mxGeometry x="550" y="940" width="110" height="50" as="geometry" />
        </mxCell>
        <mxCell id="7-QTB2i3PnKzkWgtio7F-36" value="" style="endArrow=block;endSize=16;endFill=0;html=1;rounded=0;" parent="7-QTB2i3PnKzkWgtio7F-2" source="7-QTB2i3PnKzkWgtio7F-35" target="7-QTB2i3PnKzkWgtio7F-30" edge="1">
          <mxGeometry width="160" relative="1" as="geometry">
            <mxPoint x="612.349204666358" y="935.9631675402884" as="sourcePoint" />
            <mxPoint x="535.6439873783979" y="927.9303794747564" as="targetPoint" />
          </mxGeometry>
        </mxCell>
        <mxCell id="7-QTB2i3PnKzkWgtio7F-37" value="supprimer un document" style="ellipse;whiteSpace=wrap;html=1;" parent="7-QTB2i3PnKzkWgtio7F-2" vertex="1">
          <mxGeometry x="425.71" y="940" width="110" height="50" as="geometry" />
        </mxCell>
        <mxCell id="7-QTB2i3PnKzkWgtio7F-38" value="" style="endArrow=block;endSize=16;endFill=0;html=1;rounded=0;" parent="7-QTB2i3PnKzkWgtio7F-2" source="7-QTB2i3PnKzkWgtio7F-37" target="7-QTB2i3PnKzkWgtio7F-30" edge="1">
          <mxGeometry width="160" relative="1" as="geometry">
            <mxPoint x="493.4991674950779" y="945.0131931623787" as="sourcePoint" />
            <mxPoint x="395" y="910" as="targetPoint" />
          </mxGeometry>
        </mxCell>
        <mxCell id="7-QTB2i3PnKzkWgtio7F-39" value="realiser un live&lt;div&gt;stream&lt;/div&gt;" style="ellipse;whiteSpace=wrap;html=1;" parent="7-QTB2i3PnKzkWgtio7F-2" vertex="1">
          <mxGeometry x="285" y="800" width="90" height="50" as="geometry" />
        </mxCell>
        <mxCell id="7-QTB2i3PnKzkWgtio7F-40" value="extand" style="endArrow=open;endSize=12;dashed=1;html=1;rounded=0;exitX=0.5;exitY=1;exitDx=0;exitDy=0;" parent="7-QTB2i3PnKzkWgtio7F-2" source="7-QTB2i3PnKzkWgtio7F-26" target="7-QTB2i3PnKzkWgtio7F-39" edge="1">
          <mxGeometry width="160" relative="1" as="geometry">
            <mxPoint x="330.4406660051029" y="725.7194090980702" as="sourcePoint" />
            <mxPoint x="383" y="804.29" as="targetPoint" />
          </mxGeometry>
        </mxCell>
        <mxCell id="7-QTB2i3PnKzkWgtio7F-41" value="include" style="endArrow=open;endSize=12;dashed=1;html=1;rounded=0;" parent="7-QTB2i3PnKzkWgtio7F-2" source="7-QTB2i3PnKzkWgtio7F-23" target="7-QTB2i3PnKzkWgtio7F-3" edge="1">
          <mxGeometry width="160" relative="1" as="geometry">
            <mxPoint x="155" y="260" as="sourcePoint" />
            <mxPoint x="155" y="180" as="targetPoint" />
          </mxGeometry>
        </mxCell>
        <mxCell id="7-QTB2i3PnKzkWgtio7F-62" value="consulter un chapitre" style="ellipse;whiteSpace=wrap;html=1;" parent="7-QTB2i3PnKzkWgtio7F-2" vertex="1">
          <mxGeometry x="610" y="270" width="110" height="60" as="geometry" />
        </mxCell>
        <mxCell id="7-QTB2i3PnKzkWgtio7F-63" value="" style="endArrow=block;endSize=16;endFill=0;html=1;rounded=0;entryX=1;entryY=0.5;entryDx=0;entryDy=0;" parent="7-QTB2i3PnKzkWgtio7F-2" source="7-QTB2i3PnKzkWgtio7F-62" target="aU6ynQUBwUIpJQbEk_p2-1" edge="1">
          <mxGeometry width="160" relative="1" as="geometry">
            <mxPoint x="535.2998640211287" y="237.86354840881307" as="sourcePoint" />
            <mxPoint x="359.58000000000004" y="259.86" as="targetPoint" />
          </mxGeometry>
        </mxCell>
        <mxCell id="7-QTB2i3PnKzkWgtio7F-64" value="consulter un document" style="ellipse;whiteSpace=wrap;html=1;" parent="7-QTB2i3PnKzkWgtio7F-2" vertex="1">
          <mxGeometry x="780" y="270" width="110" height="60" as="geometry" />
        </mxCell>
        <mxCell id="7-QTB2i3PnKzkWgtio7F-65" value="" style="endArrow=block;endSize=16;endFill=0;html=1;rounded=0;" parent="7-QTB2i3PnKzkWgtio7F-2" source="7-QTB2i3PnKzkWgtio7F-64" target="7-QTB2i3PnKzkWgtio7F-62" edge="1">
          <mxGeometry width="160" relative="1" as="geometry">
            <mxPoint x="530.2998640211287" y="320.00354840881306" as="sourcePoint" />
            <mxPoint x="320" y="314.14" as="targetPoint" />
          </mxGeometry>
        </mxCell>
        <mxCell id="7-QTB2i3PnKzkWgtio7F-68" value="gerer chapire" style="ellipse;whiteSpace=wrap;html=1;" parent="7-QTB2i3PnKzkWgtio7F-2" vertex="1">
          <mxGeometry x="490" y="580" width="90" height="40" as="geometry" />
        </mxCell>
        <mxCell id="7-QTB2i3PnKzkWgtio7F-69" value="extand" style="endArrow=open;endSize=12;dashed=1;html=1;rounded=0;" parent="7-QTB2i3PnKzkWgtio7F-2" source="7-QTB2i3PnKzkWgtio7F-24" target="7-QTB2i3PnKzkWgtio7F-68" edge="1">
          <mxGeometry width="160" relative="1" as="geometry">
            <mxPoint x="502" y="730" as="sourcePoint" />
            <mxPoint x="492" y="790" as="targetPoint" />
          </mxGeometry>
        </mxCell>
        <mxCell id="7-QTB2i3PnKzkWgtio7F-71" value="participer a un event" style="ellipse;whiteSpace=wrap;html=1;" parent="7-QTB2i3PnKzkWgtio7F-2" vertex="1">
          <mxGeometry x="657" y="110" width="110" height="60" as="geometry" />
        </mxCell>
        <mxCell id="7-QTB2i3PnKzkWgtio7F-72" value="" style="endArrow=block;endSize=16;endFill=0;html=1;rounded=0;" parent="7-QTB2i3PnKzkWgtio7F-2" source="7-QTB2i3PnKzkWgtio7F-71" target="aU6ynQUBwUIpJQbEk_p2-1" edge="1">
          <mxGeometry width="160" relative="1" as="geometry">
            <mxPoint x="530.2998640211287" y="160.00354840881306" as="sourcePoint" />
            <mxPoint x="320" y="154.14" as="targetPoint" />
          </mxGeometry>
        </mxCell>
        <mxCell id="7-QTB2i3PnKzkWgtio7F-73" value="ajouter un feedback" style="ellipse;whiteSpace=wrap;html=1;" parent="7-QTB2i3PnKzkWgtio7F-2" vertex="1">
          <mxGeometry x="402.58000000000004" y="150" width="110" height="50" as="geometry" />
        </mxCell>
        <mxCell id="7-QTB2i3PnKzkWgtio7F-74" value="extand" style="endArrow=open;endSize=12;dashed=1;html=1;rounded=0;entryX=0.5;entryY=0;entryDx=0;entryDy=0;" parent="7-QTB2i3PnKzkWgtio7F-2" source="7-QTB2i3PnKzkWgtio7F-73" target="aU6ynQUBwUIpJQbEk_p2-1" edge="1">
          <mxGeometry width="160" relative="1" as="geometry">
            <mxPoint x="405" y="402" as="sourcePoint" />
            <mxPoint x="294" y="269" as="targetPoint" />
          </mxGeometry>
        </mxCell>
        <mxCell id="7-QTB2i3PnKzkWgtio7F-75" value="extand" style="endArrow=open;endSize=12;dashed=1;html=1;rounded=0;" parent="7-QTB2i3PnKzkWgtio7F-2" source="7-QTB2i3PnKzkWgtio7F-17" target="7-QTB2i3PnKzkWgtio7F-12" edge="1">
          <mxGeometry width="160" relative="1" as="geometry">
            <mxPoint x="534.08" y="553" as="sourcePoint" />
            <mxPoint x="423.08000000000004" y="420" as="targetPoint" />
          </mxGeometry>
        </mxCell>
        <mxCell id="7-QTB2i3PnKzkWgtio7F-76" value="extand" style="endArrow=open;endSize=12;dashed=1;html=1;rounded=0;" parent="7-QTB2i3PnKzkWgtio7F-2" source="7-QTB2i3PnKzkWgtio7F-15" target="7-QTB2i3PnKzkWgtio7F-12" edge="1">
          <mxGeometry width="160" relative="1" as="geometry">
            <mxPoint x="552" y="468" as="sourcePoint" />
            <mxPoint x="477" y="445" as="targetPoint" />
          </mxGeometry>
        </mxCell>
        <mxCell id="7-QTB2i3PnKzkWgtio7F-77" value="extand" style="endArrow=open;endSize=12;dashed=1;html=1;rounded=0;" parent="7-QTB2i3PnKzkWgtio7F-2" source="7-QTB2i3PnKzkWgtio7F-18" target="7-QTB2i3PnKzkWgtio7F-17" edge="1">
          <mxGeometry width="160" relative="1" as="geometry">
            <mxPoint x="548" y="409" as="sourcePoint" />
            <mxPoint x="482" y="421" as="targetPoint" />
          </mxGeometry>
        </mxCell>
        <mxCell id="7-QTB2i3PnKzkWgtio7F-78" value="extand" style="endArrow=open;endSize=12;dashed=1;html=1;rounded=0;" parent="7-QTB2i3PnKzkWgtio7F-2" source="7-QTB2i3PnKzkWgtio7F-19" target="7-QTB2i3PnKzkWgtio7F-18" edge="1">
          <mxGeometry width="160" relative="1" as="geometry">
            <mxPoint x="720" y="479" as="sourcePoint" />
            <mxPoint x="656" y="481" as="targetPoint" />
          </mxGeometry>
        </mxCell>
        <mxCell id="7-QTB2i3PnKzkWgtio7F-79" value="" style="endArrow=block;endSize=16;endFill=0;html=1;rounded=0;" parent="7-QTB2i3PnKzkWgtio7F-2" source="7-QTB2i3PnKzkWgtio7F-24" target="7-QTB2i3PnKzkWgtio7F-23" edge="1">
          <mxGeometry width="160" relative="1" as="geometry">
            <mxPoint x="270" y="723" as="sourcePoint" />
            <mxPoint x="67" y="680" as="targetPoint" />
          </mxGeometry>
        </mxCell>
        <mxCell id="aU6ynQUBwUIpJQbEk_p2-1" value="consulter un cour" style="ellipse;whiteSpace=wrap;html=1;" vertex="1" parent="7-QTB2i3PnKzkWgtio7F-2">
          <mxGeometry x="408.58" y="267.5" width="104" height="65" as="geometry" />
        </mxCell>
        <mxCell id="aU6ynQUBwUIpJQbEk_p2-2" value="extand" style="endArrow=open;endSize=12;dashed=1;html=1;rounded=0;" edge="1" parent="7-QTB2i3PnKzkWgtio7F-2" source="aU6ynQUBwUIpJQbEk_p2-1" target="7-QTB2i3PnKzkWgtio7F-10">
          <mxGeometry width="160" relative="1" as="geometry">
            <mxPoint x="360" y="337.5" as="sourcePoint" />
            <mxPoint x="362" y="262.5" as="targetPoint" />
          </mxGeometry>
        </mxCell>
        <mxCell id="7-QTB2i3PnKzkWgtio7F-42" value="" style="endArrow=none;html=1;rounded=0;" parent="1" source="7-QTB2i3PnKzkWgtio7F-1" target="7-QTB2i3PnKzkWgtio7F-23" edge="1">
          <mxGeometry width="50" height="50" relative="1" as="geometry">
            <mxPoint x="350" y="670" as="sourcePoint" />
            <mxPoint x="400" y="620" as="targetPoint" />
          </mxGeometry>
        </mxCell>
        <mxCell id="7-QTB2i3PnKzkWgtio7F-43" value="visiteur" style="shape=umlActor;verticalLabelPosition=bottom;verticalAlign=top;html=1;" parent="1" vertex="1">
          <mxGeometry x="70" y="280" width="30" height="60" as="geometry" />
        </mxCell>
        <mxCell id="7-QTB2i3PnKzkWgtio7F-44" value="" style="endArrow=none;html=1;rounded=0;" parent="1" source="7-QTB2i3PnKzkWgtio7F-43" target="7-QTB2i3PnKzkWgtio7F-10" edge="1">
          <mxGeometry width="50" height="50" relative="1" as="geometry">
            <mxPoint x="350" y="500" as="sourcePoint" />
            <mxPoint x="400" y="450" as="targetPoint" />
          </mxGeometry>
        </mxCell>
        <mxCell id="7-QTB2i3PnKzkWgtio7F-45" value="" style="endArrow=block;endSize=16;endFill=0;html=1;rounded=0;exitX=0.5;exitY=0;exitDx=0;exitDy=0;exitPerimeter=0;entryX=0;entryY=1;entryDx=0;entryDy=0;entryPerimeter=0;" parent="1" source="7-QTB2i3PnKzkWgtio7F-1" target="7-QTB2i3PnKzkWgtio7F-43" edge="1">
          <mxGeometry width="160" relative="1" as="geometry">
            <mxPoint x="144" y="380" as="sourcePoint" />
            <mxPoint x="75" y="340" as="targetPoint" />
          </mxGeometry>
        </mxCell>
      </root>
    </mxGraphModel>
  </diagram>
</mxfile>
